<svg width="20" height="21" viewBox="0 0 20 21" fill="none" xmlns="http://www.w3.org/2000/svg">
<g clip-path="url(#clip0_1_579)">
<path d="M10 8.5C11.7 8.5 13.06 7.15 13.06 5.5C13.06 3.85 11.7 2.5 10 2.5C8.3 2.5 6.94 3.85 6.94 5.5C6.94 7.15 8.3 8.5 10 8.5ZM10 10.5C7.2 10.5 4.94 8.26 4.94 5.5C4.94 2.74 7.2 0.5 10 0.5C12.8 0.5 15.06 2.74 15.06 5.5C15.06 8.26 12.8 10.5 10 10.5ZM3 18.5H17V17.17C17 15.42 14.69 13.61 10 13.61C5.31 13.61 3 15.42 3 17.17V18.5ZM10 11.61C16.66 11.61 19 14.94 19 17.17V20.5H1V17.17C1 14.94 3.34 11.61 10 11.61Z" fill="#7D7D7D"/>
</g>
<defs>
<clipPath id="clip0_1_579">
<rect width="20" height="20" fill="white" transform="translate(0 0.5)"/>
</clipPath>
</defs>
</svg>
