<svg width="32" height="21" viewBox="0 0 32 21" fill="none" xmlns="http://www.w3.org/2000/svg">
<path d="M0 19.5909V11.4091C0 10.8709 0.151704 10.2976 0.455111 9.68909C0.758519 9.0806 1.19941 8.62363 1.77778 8.31818V4.13636C1.77778 3.11091 2.1197 2.24848 2.80356 1.54909C3.48741 0.849697 4.33067 0.5 5.33333 0.5H13.3333C13.9461 0.5 14.4693 0.62909 14.9031 0.887272C15.3357 1.14424 15.7013 1.5 16 1.95454C16.2987 1.5 16.6643 1.14424 17.0969 0.887272C17.5307 0.62909 18.0539 0.5 18.6667 0.5H26.6667C27.6693 0.5 28.5126 0.849697 29.1964 1.54909C29.8803 2.24848 30.2222 3.11091 30.2222 4.13636V8.31818C30.8018 8.62363 31.2427 9.0806 31.5449 9.68909C31.8483 10.2976 32 10.8709 32 11.4091V19.5909C32 19.8491 31.9147 20.0648 31.744 20.2382C31.5733 20.4115 31.3618 20.4988 31.1093 20.5C30.8569 20.5012 30.6459 20.4139 30.4764 20.2382C30.307 20.0624 30.2222 19.8467 30.2222 19.5909V16.8636H1.77778V19.5909C1.77778 19.8491 1.69244 20.0648 1.52178 20.2382C1.35111 20.4115 1.13956 20.4988 0.887111 20.5C0.634667 20.5012 0.423703 20.4139 0.254222 20.2382C0.0847405 20.0624 0 19.8467 0 19.5909ZM16.8889 7.77272H28.4444V4.13636C28.4444 3.62121 28.2738 3.1897 27.9324 2.84182C27.5911 2.49394 27.1692 2.31939 26.6667 2.31818H18.6667C18.163 2.31818 17.741 2.49273 17.4009 2.84182C17.0607 3.19091 16.8901 3.62242 16.8889 4.13636V7.77272ZM3.55556 7.77272H15.1111V4.13636C15.1111 3.62121 14.9404 3.1897 14.5991 2.84182C14.2578 2.49394 13.8359 2.31939 13.3333 2.31818H5.33333C4.82963 2.31818 4.4077 2.49273 4.06756 2.84182C3.72741 3.19091 3.55674 3.62242 3.55556 4.13636V7.77272ZM1.77778 15.0454H30.2222V11.4091C30.2222 10.8939 30.0516 10.4624 29.7102 10.1145C29.3689 9.76666 28.947 9.59212 28.4444 9.5909H3.55556C3.05185 9.5909 2.62993 9.76545 2.28978 10.1145C1.94963 10.4636 1.77896 10.8951 1.77778 11.4091V15.0454Z" fill="#7D7D7D"/>
</svg>
