<svg width="203" height="104" viewBox="0 0 203 104" fill="none" xmlns="http://www.w3.org/2000/svg">
<path d="M189.907 2.45861V4.88689L190.816 4.79583C191.845 4.70477 191.964 4.24947 191.701 1.60871C191.558 0.0303226 191.534 -3.09944e-05 190.721 -3.09944e-05H189.907V2.45861Z" fill="white"/>
<path d="M182.013 4.94761C182.013 5.70645 182.252 6.22246 183.042 7.22413C183.592 7.92226 184.142 8.49898 184.262 8.49898C184.525 8.49898 185.338 7.22413 185.362 6.79918C185.362 6.31352 182.898 3.94594 182.42 3.94594C182.109 3.94594 182.013 4.21912 182.013 4.94761Z" fill="white"/>
<path d="M197.634 4.79584C197.227 5.25115 196.629 5.82786 196.318 6.1314L195.768 6.61706L196.462 7.55802C196.868 8.07403 197.251 8.49898 197.371 8.49898C197.467 8.49898 197.993 7.74014 198.543 6.79918C199.476 5.19044 199.5 5.09938 199.093 4.52266C198.567 3.79417 198.543 3.79417 197.634 4.79584Z" fill="white"/>
<path d="M189.429 6.25281C188.065 6.55635 186.654 7.70979 185.601 9.28817C183.999 11.7772 183.831 12.2932 183.831 15.025C183.807 16.998 183.927 17.7265 184.381 18.8192C184.979 20.2762 186.486 22.2491 187.539 22.9473C189.692 24.3435 192.754 24.0704 194.381 22.3402C194.883 21.7938 195.481 21.2778 195.696 21.1564C195.912 21.0654 196.438 20.0637 196.845 18.9406C197.467 17.3319 197.61 16.5427 197.61 15.025C197.61 13.993 197.443 12.6878 197.251 12.1111C196.797 10.6844 194.572 7.67943 193.472 6.9813C192.563 6.37423 190.505 6.00998 189.429 6.25281Z" fill="white"/>
<path d="M163.258 7.22417C163.187 7.37595 162.876 8.37761 162.565 9.43999C162.23 10.5024 161.751 12.1415 161.464 13.0521C161.177 13.9627 160.962 14.934 160.962 15.1768C160.962 15.7232 160.053 18.5461 158.115 23.9793C157.302 26.2255 156.656 28.2288 156.656 28.4717C156.656 28.6842 155.747 31.1428 154.623 33.905C153.498 36.6671 152.589 39.0954 152.589 39.3079C152.589 39.6721 150.125 45.0751 148.977 47.2909C148.594 47.989 148.283 48.7479 148.283 48.9603C148.283 49.3246 147.542 50.8726 145.126 55.5167C144.48 56.7005 143.978 57.8236 143.978 57.9753C143.978 58.2789 142.781 60.4643 140.82 63.7425C140.318 64.5621 139.911 65.3513 139.911 65.503C139.911 65.8066 138.117 68.933 137.686 69.3579C137.16 69.8739 135.605 72.6058 135.605 73.0004C135.605 73.1825 134.911 74.3056 134.05 75.459C133.189 76.6124 132.519 77.7659 132.567 78.0087C132.663 78.7372 135.677 79.5871 136.897 79.2228C137.949 78.9193 139.002 77.6748 139.576 75.975C139.743 75.459 139.983 74.9733 140.102 74.9126C140.341 74.8216 143.164 69.965 143.738 68.6598C144.145 67.7795 145.054 66.0797 147.04 62.4373C147.709 61.1625 148.283 59.9483 148.283 59.7055C148.283 59.493 148.403 59.1591 148.523 59.0074C148.929 58.4914 151.345 53.392 152.015 51.6011C152.35 50.6905 152.852 49.446 153.092 48.8693C153.355 48.2926 154.001 46.7142 154.527 45.3786C155.077 44.0431 155.58 42.8896 155.675 42.7986C155.914 42.5557 156.656 40.3703 156.656 39.915C156.656 39.6721 157.087 38.4276 157.589 37.1224C159.527 32.2052 160.723 28.7145 160.723 27.9557C160.723 27.6825 161.321 25.6184 162.038 23.3723C162.756 21.1261 163.354 19.1228 163.354 18.9407C163.354 18.7282 163.474 18.455 163.641 18.3336C163.952 18.0908 165.029 19.5174 165.029 20.1852C165.029 20.5797 166.512 23.7972 168.306 27.2272C168.76 28.1074 169.239 29.2912 169.382 29.8072C169.526 30.3536 169.885 31.2035 170.148 31.7195C171.153 33.48 173.545 38.6705 173.736 39.5204C173.928 40.2792 174.31 39.9453 175.913 37.6385C176.702 36.485 177.42 35.5441 177.492 35.5441C177.635 35.5137 178.066 36.4547 179.597 40.1274C180.147 41.4326 180.865 42.9807 181.176 43.5878C181.511 44.1948 181.87 45.2268 182.013 45.8339C182.157 46.4713 182.444 47.2909 182.707 47.6855C182.946 48.0801 183.496 49.2335 183.927 50.2352C184.381 51.2368 185.075 52.6938 185.53 53.4527C185.96 54.2419 186.319 55.0614 186.319 55.2739C186.319 55.6988 187.395 57.8539 188.855 60.4643C189.261 61.1625 189.812 62.2552 190.051 62.8319C190.745 64.471 193.519 69.5097 193.735 69.5097C193.83 69.5097 194.213 70.2382 194.572 71.1184C194.907 71.9987 195.888 73.7592 196.749 75.0037L198.28 77.2499L200.481 77.1284C201.701 77.0981 202.801 76.9767 202.897 76.8856C203.184 76.6731 202.849 75.6411 202.179 74.7305C201.844 74.2752 200.337 71.8166 198.806 69.2365C197.299 66.6868 195.792 64.2585 195.505 63.8943C195.194 63.4997 194.739 62.5891 194.452 61.8302C194.165 61.0714 193.591 59.9483 193.161 59.3109C192.347 58.0664 190.386 54.4847 190.386 54.2115C190.386 54.0901 189.453 52.2385 186.75 47.0784C186.51 46.6535 186.319 46.1071 186.319 45.8946C186.319 45.5607 185.673 44.1645 182.874 38.5187C182.42 37.6081 181.893 36.2725 181.702 35.5744C181.511 34.8763 180.913 33.389 180.386 32.2659C179.836 31.1124 179.119 29.4126 178.784 28.4413C178.425 27.5004 178.042 26.7112 177.922 26.7112C177.635 26.7112 177.468 26.9236 175.817 29.443C175.1 30.5357 174.382 31.416 174.191 31.416C173.975 31.416 173.64 30.8089 173.425 30.0501C173.21 29.2912 172.612 27.895 172.133 26.954C171.655 25.9827 170.937 24.4043 170.531 23.4633C170.124 22.492 169.717 21.4904 169.598 21.2475C169.478 21.0047 169.239 20.3369 169.071 19.7602C168.904 19.2138 168.234 17.6355 167.588 16.2695C166.942 14.934 165.818 12.3539 165.124 10.5631C163.833 7.34559 163.498 6.73852 163.258 7.22417Z" fill="white"/>
<path d="M178.664 14.6C178.138 15.7838 178.497 16.0874 180.458 16.0874H182.252V15.025V13.9626H180.578C179.142 13.9626 178.879 14.0537 178.664 14.6Z" fill="white"/>
<path d="M198.998 15.025V16.0874H200.792C202.251 16.0874 202.634 15.9963 202.753 15.6017C203.064 14.5393 202.49 14.1144 200.696 14.0233L198.998 13.9323V15.025Z" fill="white"/>
<path d="M40.6118 17.5747C39.5592 17.9996 38.9373 18.546 38.1478 19.6691C37.7412 20.2761 37.2388 20.9743 37.0235 21.2171C35.947 22.5223 35.8274 26.7111 36.7604 28.9876C37.9804 31.9623 39.9659 33.5103 42.5494 33.5406C43.6738 33.5406 44.3914 33.3585 45.2048 32.8425C45.8028 32.4783 46.4248 32.1747 46.5683 32.1747C46.7357 32.1747 46.8554 31.9926 46.8554 31.7498C46.8554 31.5373 47.0228 31.1731 47.2381 30.9302C47.8601 30.2928 48.7452 27.8038 48.8887 26.2254C49.104 24.1614 48.6973 22.4312 47.5012 20.4583C46.2334 18.3639 44.8938 17.4836 42.7887 17.3926C41.9275 17.3622 40.9467 17.4229 40.6118 17.5747ZM43.602 21.9759C44.7742 22.583 45.42 23.8275 45.42 25.3755C45.42 26.4683 45.2765 26.8629 44.511 27.9252C43.7455 28.9269 43.4106 29.1394 42.693 29.1394C41.4969 29.1394 40.5639 28.4109 39.9181 26.9539C39.2961 25.5577 39.4157 24.4042 40.3486 23.0383C41.3294 21.551 42.2385 21.2475 43.602 21.9759Z" fill="white"/>
<path d="M53.5533 17.9389C51.0894 19.8815 50.5631 22.6437 52.0224 26.2861C52.6682 27.8949 52.6682 27.9252 52.2137 28.5627C51.9267 28.9573 51.5678 29.1394 51.2329 29.0483C50.7067 28.9269 50.6827 28.9876 50.6827 31.0213C50.6827 32.9336 50.7306 33.1157 51.2569 33.4192C52.5965 34.2084 55.0604 33.0246 55.9455 31.2034C56.7589 29.5036 56.8067 27.8949 56.0891 25.9219C55.1561 23.3115 55.2996 21.7331 56.5436 21.5813C56.6871 21.551 56.7828 20.6404 56.7828 19.4869V17.4533L55.5867 17.3622C54.7016 17.3015 54.1753 17.4533 53.5533 17.9389Z" fill="white"/>
<path d="M61.2802 18.0907C60.6343 18.6067 60.108 19.3352 59.7492 20.2762C59.2229 21.5814 59.175 22.1885 59.1033 27.2879C59.0554 31.0517 59.1033 32.9336 59.2707 33.055C59.4143 33.1765 60.2037 33.2372 61.017 33.2068L62.5241 33.1765L62.6437 27.6825C62.7394 23.1598 62.8351 22.0974 63.1461 21.7028C63.5049 21.2475 63.5527 21.2475 63.9355 21.7028C64.4378 22.3402 64.4139 22.8259 63.8637 23.6454C63.5049 24.1614 63.4092 24.7078 63.457 26.013C63.481 27.045 63.6245 27.7735 63.7919 27.8646C64.39 28.1074 66.4233 27.2575 67.2127 26.438C67.9782 25.6184 68.0022 25.5577 68.0022 22.9777C68.0261 20.4887 68.0022 20.3369 67.3324 19.4566C65.6578 17.2408 63.1221 16.6641 61.2802 18.0907Z" fill="white"/>
<path d="M95.6317 17.9997C95.0576 18.3943 94.3399 19.1835 94.0289 19.7299C93.5026 20.7315 93.5026 20.944 93.5505 26.9844L93.6222 33.2372L95.2968 33.2069L96.9713 33.1461L97.0431 31.4463C97.0909 30.2929 97.2344 29.6555 97.4736 29.5341C97.9521 29.2912 97.9521 25.922 97.4497 25.6792C97.2105 25.5578 97.0909 25.0721 97.0909 24.0704C97.0909 22.2492 97.378 21.5814 97.976 22.0367C98.3588 22.3403 98.4066 22.9777 98.4784 27.7129L98.5262 33.0551L99.3156 33.2069C99.7223 33.2979 100.512 33.3283 101.038 33.2979L101.995 33.2372L102.067 28.0771C102.162 22.3099 101.899 20.2459 100.966 18.971C99.6744 17.2105 97.4497 16.7856 95.6317 17.9997Z" fill="white"/>
<path d="M25.3736 25.4059L25.4454 33.2371L26.6176 33.3282C28.8901 33.5103 28.9141 33.48 28.9141 30.2321C28.9141 27.6521 28.9619 27.3789 29.3925 27.2271C29.7992 27.1057 29.8709 26.8022 29.8709 25.2238C29.8709 23.5847 29.8231 23.3722 29.3925 23.3722C28.9619 23.3722 28.9141 23.1294 28.8662 20.5494L28.7945 17.7568L27.0482 17.6658L25.3258 17.5747L25.3736 25.4059Z" fill="white"/>
<path d="M30.3971 25.406L30.4689 33.2068H32.263L34.0571 33.2372V25.497V17.7569L32.1912 17.6658L30.3492 17.5747L30.3971 25.406Z" fill="white"/>
<path d="M71.8056 18.4246C70.2507 19.6994 70.0593 20.4583 70.0593 25.7095C70.0593 29.6554 70.1072 30.3232 70.5378 31.1731C70.8009 31.7195 71.1358 32.1748 71.3033 32.1748C71.4468 32.1748 71.7578 32.3569 71.9491 32.5997C72.284 32.964 75.2982 33.2978 76.7096 33.1157C76.9249 33.0854 76.9966 32.539 76.9488 31.0213L76.877 28.9876L75.2503 28.8966C74.1021 28.8359 73.5758 28.6841 73.4801 28.3502C73.2409 27.561 73.8868 27.045 75.2743 26.954L76.6378 26.8629V25.3452V23.8275L75.2503 23.7365C72.7864 23.5847 73.2409 21.8546 75.7288 21.8546H77.0206L76.9488 19.7905L76.877 17.7568L74.8437 17.6658C72.9778 17.6051 72.7386 17.6354 71.8056 18.4246Z" fill="white"/>
<path d="M79.7477 17.9997C79.676 18.2122 79.652 21.7332 79.676 25.8006L79.7477 33.2372L80.4175 33.2068C80.7764 33.1765 81.5419 33.1461 82.1399 33.1158L83.2164 33.0854V27.5914V22.0974L84.7952 22.2188C86.2305 22.3402 86.4697 22.4313 87.0678 23.3116C88.5031 25.3452 87.6419 28.2288 85.465 28.6841C83.8623 29.018 83.9101 28.9573 83.9819 31.1731L84.0536 33.2372L85.3215 33.2068C86.685 33.1461 88.5509 32.3873 89.2925 31.5981C90.0102 30.8089 90.7996 29.0484 91.2062 27.2879C91.8043 24.7989 91.4215 22.917 89.8188 20.5494C88.1443 17.9997 87.2592 17.6354 83.025 17.6051C80.6807 17.6051 79.8195 17.6961 79.7477 17.9997Z" fill="white"/>
<path d="M104.674 17.8176C104.579 17.9086 104.507 20.3066 104.507 23.0991C104.507 25.8916 104.435 28.3806 104.363 28.6538C104.291 28.927 104.004 29.1395 103.765 29.1395C103.359 29.1395 103.311 29.3823 103.311 31.2338C103.311 32.8729 103.406 33.3586 103.693 33.5104C104.459 33.8746 105.177 33.6621 106.229 32.7819C107.928 31.3553 108.095 30.5357 108.095 23.524V17.6051H106.468C105.559 17.6051 104.746 17.6962 104.674 17.8176Z" fill="white"/>
<path d="M112.879 17.939C112.114 18.3336 111.253 19.3656 110.822 20.3976C110.344 21.5814 110.344 29.3519 110.846 30.8392C111.324 32.2962 112.664 33.0247 115.463 33.2675L117.664 33.4496V31.1428V28.8359H116.157C114.482 28.8359 113.956 28.4716 114.338 27.561C114.53 27.1361 114.865 27.0147 116.013 27.0147H117.448L117.377 25.4059L117.305 23.8275L115.917 23.7365C114.554 23.6454 114.53 23.6151 114.602 22.8259C114.673 22.0367 114.745 22.0063 116.18 21.9153L117.664 21.8242V19.7298V17.6051L115.582 17.6354C114.41 17.6354 113.214 17.7872 112.879 17.939Z" fill="white"/>
<path d="M183.018 22.917C182.157 24.04 181.989 24.4346 182.061 25.2542C182.18 26.8629 182.946 26.7415 184.405 24.8899L185.649 23.3116L184.979 22.4313C184.621 21.9456 184.262 21.551 184.19 21.5814C184.118 21.5814 183.592 22.1885 183.018 22.917Z" fill="white"/>
<path d="M196.534 22.7045L195.888 23.5544L197.036 24.981C197.658 25.7702 198.304 26.4076 198.447 26.4076C198.926 26.4076 199.285 25.5273 199.141 24.7381C198.998 23.9793 197.658 21.8546 197.347 21.8546C197.251 21.8546 196.892 22.2492 196.534 22.7045Z" fill="white"/>
<path d="M149.169 23.8883C149.121 24.04 148.834 25.0113 148.547 26.1041C148.116 27.7735 147.303 29.9893 144.384 37.2742C144.193 37.7295 143.69 38.974 143.26 40.0667C142.829 41.1594 142.279 42.3129 142.064 42.6468C141.849 42.9807 141.25 44.1341 140.748 45.2268C139.648 47.6247 138.236 50.2655 136.945 52.4813C136.394 53.3616 135.868 54.3329 135.725 54.6061C135.079 55.9416 133.141 58.8556 132.663 59.2805C132.352 59.5537 131.921 60.1911 131.706 60.7678C131.49 61.3142 130.916 62.2855 130.414 62.8926C129.912 63.4997 128.979 64.7442 128.309 65.6244C127.663 66.5047 126.491 67.9616 125.725 68.9026C124.936 69.8132 123.453 71.6344 122.4 72.9093C121.348 74.2145 120.343 75.2768 120.175 75.2768C119.864 75.2768 118.166 77.3409 118.07 77.8569C118.046 78.039 119.219 78.2818 120.893 78.464L123.764 78.7979L125.175 77.0981C128.572 73.1217 135.605 63.53 135.605 62.9229C135.605 62.8015 136.418 61.4356 137.399 59.9483C138.38 58.4306 139.361 56.7308 139.6 56.1541C139.815 55.5774 140.437 54.3329 140.987 53.4223C141.538 52.5117 142.542 50.4476 143.26 48.8692C143.954 47.2909 144.887 45.2268 145.317 44.3162C146.298 42.2825 148.283 37.3349 148.283 36.9706C148.283 36.3636 149.575 33.0854 149.814 33.0854C149.958 33.1157 150.412 33.6621 150.795 34.2995C151.202 34.937 151.585 35.4833 151.656 35.5137C151.824 35.5137 152.589 33.48 152.589 33.0247C152.589 32.8426 152.757 32.448 152.972 32.1444C153.331 31.6588 153.307 31.4463 152.613 29.6251C152.231 28.5627 151.585 27.2271 151.202 26.6504C150.819 26.1041 150.317 25.1935 150.078 24.6471C149.623 23.6758 149.36 23.4633 149.169 23.8883Z" fill="white"/>
<path d="M189.955 27.8039C190.003 29.3823 190.123 29.8983 190.457 30.1715C191.175 30.7179 191.773 29.5037 191.725 27.5611L191.701 25.9523L190.792 25.8613L189.883 25.7702L189.955 27.8039Z" fill="white"/>
<path d="M3.17421 40.3399C2.64793 40.6435 1.85851 41.4326 1.45184 42.1308C0.758112 43.1932 0.686347 43.5574 0.686347 45.2572C0.710269 46.7749 0.829877 47.473 1.28439 48.414C2.21734 50.3566 1.93028 51.7832 0.638504 51.5404C0.112225 51.4493 0.0883037 51.5707 0.0165385 53.4223C-0.0791485 55.6988 0.207912 56.1541 1.7389 56.1541C2.8393 56.1541 4.75304 55.0918 4.75304 54.4847C4.75304 54.2419 4.89657 53.9383 5.08795 53.8169C6.11658 53.0277 6.23619 50.3262 5.32716 48.1711C4.92049 47.1695 4.75304 46.3499 4.80089 45.5911C4.87265 44.6198 4.96834 44.4376 5.5903 44.3162C6.28403 44.1645 6.30795 44.1038 6.37972 42.3433C6.42756 40.9166 6.3558 40.4613 6.04482 40.1578C5.44677 39.6114 4.32245 39.6721 3.17421 40.3399Z" fill="white"/>
<path d="M34.2964 40.2488C33.2917 40.8862 32.3587 42.1004 31.9042 43.2538C31.6172 44.043 31.5454 45.4393 31.5454 50.053V55.8809L33.2917 55.7898L35.0141 55.6988L35.0858 50.3566C35.1576 44.559 35.2772 43.9216 36.3058 44.6197C36.7603 44.9233 36.8082 45.2572 36.856 50.3262L36.9278 55.6988L38.6741 55.7898L40.4204 55.8809L40.3486 49.5674L40.2768 43.2235L39.2243 41.7968C37.7651 39.8239 35.8513 39.2168 34.2964 40.2488Z" fill="white"/>
<path d="M45.9941 40.0667C44.9655 40.3702 43.889 41.4023 43.267 42.6164C42.8125 43.5877 42.7886 44.0127 42.8364 49.6888L42.9082 55.6988H44.7023H46.4965L46.5682 54.0293C46.6161 52.967 46.7835 52.2688 46.9988 52.1171C47.4773 51.7528 47.4773 48.3836 46.9749 48.1407C46.7357 48.0193 46.6161 47.5337 46.6161 46.6231C46.6161 44.984 46.8074 44.3162 47.238 44.3162C47.8839 44.3162 48.0514 45.5607 48.0514 50.6904V55.8809L49.7977 55.7898L51.52 55.6988L51.5918 50.3869C51.6875 43.2235 51.2808 41.5844 49.1279 40.3399C48.1231 39.7632 47.238 39.6721 45.9941 40.0667Z" fill="white"/>
<path d="M58.3138 40.2489C56.9742 40.7649 55.1562 42.7378 54.4385 44.4376C53.6969 46.2285 53.6969 49.7192 54.4864 51.6011C55.6825 54.515 57.7397 56.1541 60.2276 56.1541C61.4954 56.1541 63.3374 55.456 63.7202 54.8186C63.8637 54.6061 64.2704 54.1811 64.6292 53.8776C65.0119 53.5741 65.4904 52.8456 65.7296 52.2385C66.2319 50.903 66.83 48.5961 66.6865 48.4443C66.6386 48.3836 65.8013 48.2622 64.8445 48.2318L63.1221 48.1104L62.6437 49.3549C61.7586 51.6011 59.797 51.9957 58.4335 50.2655C57.1895 48.6872 57.3809 46.4106 58.864 45.1965C60.0362 44.2859 61.3519 44.5591 62.2849 45.925L63.0025 46.9873L64.7488 46.8052C65.7057 46.7445 66.519 46.5624 66.5908 46.4713C66.83 45.9553 65.61 43.4056 64.4139 41.979C62.6198 39.8239 60.7299 39.2775 58.3138 40.2489Z" fill="white"/>
<path d="M72.9539 39.9756C72.2841 40.1577 70.2029 41.7968 69.4135 42.7681C68.3848 44.0126 68.0499 45.2571 68.026 47.6551C68.026 49.537 68.1456 50.2351 68.6958 51.6617C69.0786 52.6331 69.6288 53.574 69.9158 53.7865C70.2268 53.999 70.9445 54.5757 71.5186 55.0917C72.9778 56.3362 75.2504 56.5183 76.7814 55.547C80.1065 53.3919 80.6806 52.2385 80.7045 47.8068C80.7045 45.3178 80.6328 44.5894 80.25 43.8912C78.8147 41.0683 75.4896 39.2775 72.9539 39.9756ZM75.37 44.3162C77.0684 44.9233 77.7382 47.6551 76.7574 50.0834C76.1833 51.5403 75.0111 52.0867 73.5758 51.5707C72.5472 51.2064 71.9731 50.2958 71.8056 48.6264C71.5425 46.107 72.3798 44.6197 74.3653 44.043C74.437 44.043 74.8915 44.1644 75.37 44.3162Z" fill="white"/>
<path d="M86.685 40.2792C84.0297 41.4934 82.0202 45.3179 82.3312 48.6264C82.5226 50.478 83.5273 53.3616 84.1014 53.6348C84.3406 53.7562 84.6277 54.0294 84.7234 54.2419C85.1301 55.1221 87.2352 56.1541 88.5748 56.1541C91.4693 56.1541 93.6701 54.2419 94.6748 50.8726C95.4403 48.2318 95.4643 48.2622 93.2635 48.2622C91.6607 48.2622 91.3497 48.3533 91.3497 48.7479C91.3497 49.021 90.9909 49.6888 90.5364 50.2655C89.8666 51.1154 89.5317 51.2976 88.7183 51.2976C87.3787 51.2976 86.0869 49.7799 86.0869 48.2015C86.0869 44.9233 89.1968 43.436 90.7995 45.9857L91.4693 47.0481L93.1438 46.8659C94.0529 46.7445 94.8901 46.5928 94.9858 46.4713C95.225 46.1982 94.3639 43.8609 93.5266 42.5254C92.0674 40.2185 89.0532 39.2168 86.685 40.2792Z" fill="white"/>
<path d="M111.324 40.2185C110.798 40.4613 110.344 40.6738 110.344 40.6738C110.32 40.6738 109.937 41.4023 109.506 42.2522L108.693 43.8305V49.7798V55.6988L110.439 55.7898L112.162 55.8809V54.1811C112.162 52.6634 112.209 52.4813 112.76 52.2081C113.358 51.9349 113.382 51.8135 113.31 50.0227C113.238 48.3532 113.19 48.1104 112.76 48.1104C111.803 48.1104 112.09 44.559 113.047 44.3769C113.932 44.1948 114.099 45.1661 114.051 50.6297L114.028 55.6988L115.87 55.7898L117.711 55.8809L117.616 49.8102L117.544 43.7698L116.826 42.4343C115.463 40.006 113.501 39.2168 111.324 40.2185Z" fill="white"/>
<path d="M8.58055 47.7765C8.58055 56.5487 8.38918 55.8505 10.877 55.8505H12.408V47.9586V40.0667H10.4943H8.58055V47.7765Z" fill="white"/>
<path d="M14.8002 47.9283V55.8506H16.4747C17.4076 55.8506 18.1492 55.7595 18.1731 55.6077C18.1731 55.4863 18.1731 52.9973 18.1971 50.0834C18.1971 47.1694 18.3167 44.6197 18.4363 44.4073C18.5559 44.1948 18.8908 44.1644 19.2975 44.2859C20.1108 44.559 20.3261 45.6821 19.6084 45.9857C19.1778 46.1678 19.1061 46.441 19.1061 48.1408C19.1061 49.9923 19.13 50.0834 19.6802 50.0834C19.9912 50.0834 20.3739 50.2655 20.5175 50.5083C20.9481 51.1761 20.5653 51.9046 19.7998 51.9046H19.1061V53.8776C19.1061 55.7595 19.13 55.8506 19.6802 55.8506C20.9002 55.8506 21.7853 55.4256 22.7183 54.3632C23.4598 53.5133 23.723 52.9973 23.8187 52.026C23.9622 50.5083 23.3642 48.6568 22.5269 48.1711C21.8571 47.7765 21.8332 47.564 22.479 46.4713C22.7661 45.9857 23.0292 44.984 23.101 44.2555C23.2206 43.0717 23.1489 42.8289 22.2638 41.5844L21.3069 40.2185L18.0535 40.1274L14.8002 40.006V47.9283Z" fill="white"/>
<path d="M25.6128 47.8676L25.6846 55.6988H27.4787H29.2728L29.3446 47.8676L29.3924 40.0667H27.4787H25.5649L25.6128 47.8676Z" fill="white"/>
<path d="M97.4498 40.4309C97.378 40.6434 97.3541 44.1948 97.378 48.2622L97.4498 55.6988H99.1243H100.799L100.871 52.967C100.918 50.8422 101.014 50.1441 101.325 49.8709C101.827 49.3852 101.78 46.1981 101.253 45.7125C101.038 45.4696 100.918 44.559 100.871 42.7985L100.799 40.2185L99.1721 40.1274C98.0239 40.0667 97.5215 40.1578 97.4498 40.4309Z" fill="white"/>
<path d="M102.402 47.8676L102.473 55.6988L104.22 55.7898L105.942 55.8809L105.894 48.0497L105.822 40.2185L104.076 40.1274L102.354 40.0363L102.402 47.8676Z" fill="white"/>
<path d="M131.945 42.4343C131.706 42.7378 131.538 43.1021 131.538 43.2235C131.538 43.5877 129.17 47.3516 128.141 48.6568C127.615 49.2942 127.137 50.053 127.041 50.3566C126.85 51.0547 124.912 53.7258 124.625 53.7258C124.529 53.7258 123.644 54.8186 122.711 56.1541C121.754 57.4593 120.558 58.8556 120.056 59.2198C119.53 59.6144 119.099 60.009 119.099 60.1608C119.099 60.4643 115.559 64.046 115.032 64.2889C114.841 64.3799 114.458 64.6835 114.195 64.9566C113.262 65.9887 109.028 69.5097 108.741 69.5097C108.573 69.5097 107.808 69.9953 107.018 70.6024C104.578 72.5147 99.9855 75.2769 99.3396 75.2769C99.0047 75.2769 98.311 75.55 97.8325 75.8839C97.3541 76.2178 96.2298 76.8249 95.2968 77.2195C94.2921 77.6444 93.6223 78.0694 93.6223 78.3426C93.6223 78.7068 94.5553 78.7675 99.1243 78.7675H104.65L105.822 77.8266C107.473 76.491 109.267 75.2769 109.53 75.2769C109.841 75.2769 114.171 71.9076 114.267 71.5737C114.386 71.2095 116.468 69.5097 116.802 69.5097C116.946 69.5097 117.688 68.8419 118.405 68.0527C119.099 67.2635 120.295 66.019 121.013 65.3209C122.807 63.5604 126.012 59.7965 128.046 57.0951C131.012 53.1491 131.395 52.5724 131.969 51.6314C132.615 50.5387 132.974 50.4476 133.572 51.2975C133.811 51.6314 134.122 51.9046 134.289 51.9046C134.6 51.9046 135.605 50.2655 135.605 49.7495C135.605 49.537 135.772 49.1424 135.964 48.8692C136.299 48.4139 136.251 48.2015 135.701 46.8659C134.816 44.7412 132.997 41.8879 132.543 41.8879C132.423 41.8879 132.16 42.1308 131.945 42.4343Z" fill="white"/>
<path d="M166.344 44.0127C166.057 44.1341 165.722 44.4376 165.579 44.6804C165.292 45.075 165.1 48.7478 165.292 49.9316C165.387 50.5083 165.268 50.5387 162.541 50.478L159.718 50.3869L159.024 51.3279C158.474 52.0564 158.331 52.5724 158.331 53.574C158.331 54.4543 158.187 55.0007 157.852 55.3953C157.541 55.7595 157.374 56.3362 157.374 57.1254C157.374 57.7628 157.23 58.6734 157.039 59.1287C156.345 60.8893 155.651 68.2955 156.178 68.2955C156.297 68.2955 156.417 67.567 156.441 66.6868C156.465 65.2602 156.489 65.1995 156.656 66.1101C156.871 67.2331 157.996 69.5097 158.331 69.5097C158.474 69.5097 158.57 69.8436 158.57 70.2989C158.57 70.8756 158.378 71.1488 157.733 71.513C156.728 72.029 156.608 72.5147 156.704 75.8839L156.776 78.464L157.685 78.555C158.211 78.6157 158.761 78.464 158.976 78.2515C159.335 77.8872 159.335 78.039 159.168 79.6781C159.072 80.6798 158.953 82.1671 158.953 83.017C158.929 83.8973 158.642 85.2935 158.259 86.3559C156.704 90.7572 156.178 97.4046 157.134 100.106L157.589 101.381L166.512 101.32L175.435 101.229L175.506 99.9846C175.554 99.1651 175.459 98.558 175.219 98.2848C175.028 98.0117 174.932 97.5564 174.98 97.2225C175.1 96.7065 174.956 96.585 174.191 96.4333C173.688 96.3119 172.995 96.2208 172.66 96.2208C171.559 96.2208 171.392 94.4299 172.325 92.6391C172.66 92.0017 173.066 90.575 173.258 89.5127C173.425 88.4199 173.808 86.8719 174.095 86.0524C174.358 85.2632 174.597 84.0794 174.597 83.4116C174.597 81.8029 173.306 78.4943 171.464 75.4286C169.957 72.8789 169.837 72.4236 170.435 71.9987C171.344 71.3612 170.579 65.8672 169.55 65.8672C169.143 65.8672 169.143 65.9279 169.311 61.0714C169.311 60.5554 169.406 60.1001 169.526 60.1001C169.622 60.1001 170.291 60.7071 170.985 61.466C171.703 62.1945 172.636 62.9836 173.019 63.1658C173.425 63.3782 173.928 63.7121 174.119 63.8943C174.55 64.3192 179.262 65.0477 180.004 64.7745C180.291 64.6834 180.602 64.7442 180.673 64.9263C180.889 65.3209 181.702 65.3816 181.822 64.987C181.87 64.8352 182.109 64.6531 182.372 64.5924C182.826 64.5013 182.85 64.7442 183.042 70.7238C183.137 74.1538 183.281 82.2278 183.353 88.6931C183.448 96.5243 183.592 100.47 183.759 100.47C183.927 100.47 183.951 94.8245 183.831 82.4403C183.664 64.4406 183.664 64.3799 184.142 64.046C184.764 63.6514 184.812 62.073 184.262 61.0714C184.046 60.6768 183.951 60.1911 184.023 59.9483C184.118 59.6144 183.975 59.493 183.568 59.493C183.209 59.493 182.946 59.7055 182.85 60.1001C182.779 60.4339 182.563 60.7071 182.396 60.7071C182.228 60.7071 181.965 61.041 181.822 61.466C181.511 62.3159 180.937 62.4373 179.956 61.7999C179.597 61.5267 178.999 61.4356 178.64 61.5267C178.138 61.6481 177.922 61.557 177.803 61.1928C177.731 60.9196 177.42 60.7071 177.109 60.7071C176.822 60.7071 176.296 60.4339 175.937 60.0697C175.578 59.7358 175.004 59.3412 174.669 59.2198C174.31 59.0984 173.856 58.6431 173.64 58.2485C172.253 55.3345 170.65 53.4223 169.622 53.4223C169.239 53.4223 169.119 52.1474 169.358 50.5387C169.837 47.5337 169.861 46.6534 169.55 45.4089C169.382 44.7411 169.119 44.0734 168.976 43.952C168.665 43.6484 166.942 43.6788 166.344 44.0127ZM159.527 75.7929C159.527 76.3999 159.455 76.5213 159.264 76.2785C159.096 76.066 159.048 75.7018 159.12 75.459C159.359 74.7305 159.527 74.8822 159.527 75.7929ZM167.684 80.6191C168.521 81.7118 169.358 82.8045 169.502 83.017C169.669 83.2295 169.909 83.4723 170.052 83.533C170.172 83.5634 170.004 84.2919 169.693 85.1418C169.024 86.9023 168.426 89.5734 168.21 91.9713C168.138 92.8819 167.851 93.9746 167.612 94.3692C167.229 95.0067 167.182 95.4316 167.325 97.1618C167.469 99.1651 167.469 99.2258 166.895 99.4079C166.56 99.5293 165.842 99.5597 165.244 99.499L164.191 99.4079L164.287 91.2125C164.383 81.2565 164.67 78.6157 165.698 78.6157C165.938 78.6157 166.823 79.5263 167.684 80.6191ZM163.737 91.4249C163.641 95.4923 163.498 98.8616 163.45 98.9526C163.378 99.0133 163.115 98.9223 162.876 98.7098C162.158 98.1634 161.704 98.2848 161.393 99.1044C161.249 99.5293 161.058 99.8632 160.986 99.8632C160.914 99.8632 160.818 99.0133 160.771 97.951C160.675 95.7048 161.201 92.2141 161.871 90.5447C162.134 89.9073 162.493 88.511 162.636 87.4486C162.78 86.4166 163.019 85.2025 163.163 84.8079C163.809 83.0474 163.904 84.2008 163.737 91.4249Z" fill="white"/>
<path d="M120.654 84.6561C120.008 84.9597 119.099 85.3846 118.644 85.5971C118.19 85.8096 116.994 86.6595 115.989 87.4486C113.956 89.027 112.425 89.543 109.793 89.543C107.521 89.5127 106.325 89.0877 104.028 87.4183C101.588 85.6274 98.7893 84.5651 96.6124 84.6258C94.5552 84.6865 91.541 85.8399 89.4599 87.4183C85.6324 90.3019 82.69 90.8482 79.2692 89.2699C78.2166 88.7842 76.6139 87.9343 75.6809 87.4183C71.8056 85.1418 69.1025 84.3829 67.6911 85.1114C67.1648 85.3543 66.4232 85.6578 66.0644 85.7488C65.6816 85.8096 64.0071 86.7809 62.3326 87.8736C58.2659 90.484 57.1655 90.8786 54.2949 90.6661C51.8788 90.5144 52.2855 90.6965 46.7356 87.4183C44.3435 86.022 43.578 85.8399 40.516 85.9613L37.6454 86.0524L35.4685 87.7825C32.5022 90.1805 31.019 90.9393 28.9139 91.2125C26.139 91.5464 25.7802 91.9713 26.9763 93.5194C28.1245 94.9763 29.823 94.6121 32.9567 92.2142C33.77 91.5767 34.5595 91.0607 34.703 91.0607C34.8226 91.0607 35.8034 90.5144 36.9038 89.8466C38.674 88.7539 39.0568 88.6324 40.6595 88.6324C42.8125 88.6628 44.1282 88.9967 46.018 90.1198C48.6015 91.6374 51.9745 93.1248 53.362 93.3372C55.1082 93.6104 57.7396 93.0641 59.9644 91.941C60.9451 91.4553 61.8542 91.0607 61.9977 91.0607C62.1651 91.0607 62.8828 90.6054 63.6005 90.0591C64.3181 89.5127 65.7056 88.6628 66.6864 88.1771C69.3177 86.9023 70.5856 87.1451 74.8198 89.6645C76.6139 90.7572 78.7429 91.8499 79.5084 92.1231C81.6614 92.8212 84.0057 92.7302 86.0869 91.8196C87.0438 91.3946 87.9767 91.0607 88.1442 91.0607C88.3355 91.0607 89.1967 90.4537 90.1057 89.6948C94.1964 86.3559 97.0191 86.0524 101.086 88.4807C104.315 90.4537 105.344 90.9697 107.138 91.5464C111.061 92.7909 115.152 91.7892 118.238 88.8146C120.032 87.0541 121.06 86.6595 123.644 86.6595C125.845 86.6898 125.988 86.7202 128.428 88.1468C129.816 88.9663 131.108 89.7859 131.299 89.9983C131.873 90.6054 133.93 91.3946 135.414 91.5767C136.944 91.7589 137.519 91.425 137.519 90.3019C137.519 89.2699 136.825 88.6931 135.581 88.6931C134.768 88.7235 133.954 88.3896 132.375 87.4486C131.203 86.7202 129.553 85.9006 128.691 85.5971C127.83 85.2935 126.682 84.8382 126.156 84.5651C124.84 83.9276 122.137 83.958 120.654 84.6561Z" fill="white"/>
<path d="M120.175 94.0354C119.53 94.3389 118.549 94.946 118.046 95.4013C117.544 95.8566 116.97 96.2208 116.802 96.2208C116.635 96.2208 115.87 96.7065 115.104 97.2832C113.43 98.5277 110.966 99.1044 108.454 98.8312C107.186 98.7098 106.301 98.3759 104.866 97.4653C101.014 95.0977 100.296 94.7031 98.7655 94.2175C96.7561 93.5801 94.7706 93.8229 92.498 95.037C91.5411 95.553 90.4646 96.069 90.1058 96.2208C89.7231 96.3726 89.125 96.7672 88.7423 97.1011C87.5462 98.1938 84.867 99.3169 83.0967 99.4686C81.2069 99.6508 79.03 98.8919 76.3269 97.1618C75.5136 96.6458 74.6285 96.2208 74.3414 96.2208C74.0543 96.2208 73.0018 95.7352 71.9731 95.1584C70.8249 94.4907 69.7484 94.0961 69.1265 94.0961C68.0021 94.0961 64.9641 95.5227 61.2562 97.7688C56.4719 100.683 53.9601 100.865 49.7977 98.6187C48.5298 97.9206 47.0945 97.1011 46.64 96.7975C46.1616 96.4636 45.5635 96.2208 45.2765 96.2208C45.0133 96.2208 44.1522 95.9476 43.3867 95.6137C42.6212 95.2799 41.449 95.0067 40.8031 95.0067C39.1525 95.0067 36.4972 96.1298 34.8227 97.4957C32.3587 99.5294 29.2968 101.077 27.7658 101.077C27.2634 101.077 26.6654 101.26 26.4262 101.472C26.0434 101.836 26.0434 101.897 26.5218 102.656C27.383 104.082 28.3638 104.082 31.2583 102.595C32.6697 101.897 33.9854 101.138 34.1768 100.956C35.6599 99.4079 39.0568 97.7385 40.7074 97.7385C42.2384 97.7385 46.1377 99.3169 47.0945 100.349C47.5012 100.804 49.5824 101.745 51.233 102.231C53.5056 102.959 58.4334 102.413 60.6103 101.229C61.1366 100.956 62.4762 100.045 63.6005 99.2562C67.5955 96.3726 69.9398 96.1298 73.4324 98.3152C74.5328 98.983 76.1834 100.076 77.0924 100.683L78.743 101.836H82.116C85.2975 101.836 85.5846 101.776 87.1634 100.956C88.0725 100.47 89.0293 99.8329 89.2925 99.5294C89.5317 99.2258 90.6321 98.4063 91.7086 97.7385C94.9858 95.6744 97.4259 95.7048 101.014 97.8903C106.397 101.108 106.851 101.351 108.741 101.684C111.922 102.292 114.602 101.199 118.381 97.7688L119.936 96.3726L122.974 96.2815L126.012 96.1601L128.357 97.5564C129.648 98.3456 130.868 99.1044 131.06 99.2562C132.615 100.531 133.954 101.168 135.246 101.29C136.945 101.442 137.351 101.168 137.351 99.8936C137.351 98.4973 136.921 98.042 135.509 98.042C134.648 98.042 133.835 97.7688 132.782 97.1314C131.945 96.6154 131.132 96.2208 130.988 96.2208C130.701 96.2208 128.476 95.1281 126.754 94.1568C125.438 93.3979 121.659 93.3372 120.175 94.0354Z" fill="white"/>
</svg>
