<svg width="269" height="150" viewBox="0 0 269 150" fill="none" xmlns="http://www.w3.org/2000/svg">
<path d="M251.651 3.54174V7.03955L252.855 6.90838C254.218 6.77721 254.377 6.12137 254.028 2.3175C253.838 0.0439243 253.806 0.000201225 252.728 0.000201225H251.651V3.54174Z" fill="#DF6951"/>
<path d="M241.19 7.12664C241.19 8.2197 241.507 8.96299 242.553 10.4058C243.282 11.4115 244.011 12.2422 244.169 12.2422C244.518 12.2422 245.596 10.4058 245.628 9.79372C245.628 9.09416 242.363 5.68379 241.729 5.68379C241.316 5.68379 241.19 6.07729 241.19 7.12664Z" fill="#DF6951"/>
<path d="M261.889 6.90802C261.351 7.56386 260.558 8.39459 260.146 8.83182L259.417 9.53138L260.336 10.8868C260.875 11.6301 261.382 12.2422 261.541 12.2422C261.668 12.2422 262.365 11.1491 263.094 9.79372C264.33 7.47642 264.362 7.34525 263.823 6.51452C263.126 5.46517 263.094 5.46517 261.889 6.90802Z" fill="#DF6951"/>
<path d="M251.017 9.00648C249.21 9.4437 247.339 11.1052 245.945 13.3787C243.821 16.964 243.599 17.7073 243.599 21.6423C243.567 24.4843 243.726 25.5336 244.328 27.1077C245.12 29.2063 247.118 32.0483 248.512 33.0539C251.365 35.0652 255.423 34.6717 257.578 32.1795C258.244 31.3925 259.036 30.6492 259.322 30.4743C259.607 30.3431 260.304 28.9003 260.843 27.2826C261.667 24.9653 261.858 23.8285 261.858 21.6423C261.858 20.1558 261.636 18.2757 261.382 17.445C260.78 15.39 257.832 11.0614 256.374 10.0558C255.169 9.18137 252.443 8.65669 251.017 9.00648Z" fill="#DF6951"/>
<path d="M216.338 10.4055C216.243 10.6242 215.83 12.067 215.418 13.5973C214.975 15.1276 214.341 17.4886 213.96 18.8003C213.58 20.112 213.295 21.5111 213.295 21.8609C213.295 22.6479 212.09 26.7141 209.522 34.5405C208.445 37.7759 207.589 40.6616 207.589 41.0114C207.589 41.3175 206.384 44.859 204.894 48.8378C203.404 52.8165 202.2 56.3143 202.2 56.6204C202.2 57.1451 198.935 64.9277 197.413 68.1195C196.906 69.1251 196.494 70.2181 196.494 70.5242C196.494 71.0489 195.511 73.2787 192.31 79.9683C191.454 81.6735 190.788 83.2912 190.788 83.5098C190.788 83.9471 189.203 87.0951 186.604 91.8171C185.938 92.9977 185.399 94.1344 185.399 94.3531C185.399 94.7903 183.022 99.2937 182.451 99.9058C181.754 100.649 179.693 104.584 179.693 105.153C179.693 105.415 178.774 107.033 177.633 108.694C176.492 110.356 175.604 112.017 175.668 112.367C175.794 113.416 179.788 114.64 181.405 114.116C182.8 113.678 184.195 111.886 184.955 109.437C185.177 108.694 185.494 107.995 185.653 107.907C185.97 107.776 189.71 100.78 190.471 98.9002C191.01 97.6323 192.215 95.1838 194.846 89.9371C195.733 88.1007 196.494 86.3518 196.494 86.002C196.494 85.696 196.652 85.215 196.811 84.9964C197.35 84.2531 200.551 76.9077 201.439 74.3281C201.883 73.0164 202.548 71.2238 202.865 70.393C203.214 69.5623 204.07 67.2887 204.767 65.3649C205.496 63.4411 206.162 61.7797 206.289 61.6485C206.606 61.2987 207.589 58.1507 207.589 57.4949C207.589 57.1451 208.159 55.3524 208.825 53.4724C211.393 46.3893 212.978 41.3612 212.978 40.2681C212.978 39.8746 213.77 36.9015 214.721 33.666C215.672 30.4305 216.464 27.5448 216.464 27.2825C216.464 26.9764 216.623 26.5829 216.845 26.408C217.257 26.0583 218.683 28.1132 218.683 29.0751C218.683 29.6435 220.649 34.2781 223.026 39.2188C223.628 40.4867 224.262 42.1919 224.453 42.9352C224.643 43.7222 225.118 44.9464 225.467 45.6897C226.798 48.2256 229.968 55.7022 230.222 56.9265C230.476 58.0195 230.983 57.5386 233.107 54.2157C234.153 52.5542 235.104 51.1988 235.199 51.1988C235.389 51.1551 235.959 52.5105 237.988 57.8009C238.717 59.681 239.668 61.9108 240.08 62.7853C240.524 63.6597 241 65.1463 241.19 66.0208C241.38 66.9389 241.76 68.1195 242.109 68.6879C242.426 69.2562 243.155 70.9177 243.726 72.3606C244.328 73.8034 245.247 75.9021 245.85 76.9952C246.42 78.1319 246.896 79.3125 246.896 79.6185C246.896 80.2306 248.322 83.3349 250.256 87.0951C250.795 88.1007 251.524 89.6747 251.841 90.5055C252.76 92.8665 256.437 100.124 256.722 100.124C256.849 100.124 257.356 101.174 257.832 102.442C258.276 103.71 259.575 106.246 260.717 108.038L262.745 111.274L265.662 111.099C267.278 111.055 268.736 110.88 268.863 110.749C269.244 110.443 268.8 108.956 267.912 107.645C267.469 106.989 265.471 103.447 263.443 99.7309C261.446 96.0582 259.449 92.5604 259.068 92.0358C258.656 91.4674 258.054 90.1557 257.673 89.0626C257.293 87.9695 256.532 86.3518 255.962 85.4336C254.884 83.641 252.285 78.4817 252.285 78.0882C252.285 77.9133 251.048 75.2463 247.466 67.8134C247.149 67.2013 246.896 66.4143 246.896 66.1082C246.896 65.6273 246.04 63.616 242.331 55.4836C241.729 54.1719 241.031 52.2481 240.778 51.2425C240.524 50.2369 239.732 48.0945 239.034 46.4767C238.305 44.8153 237.354 42.3668 236.91 40.9677C236.435 39.6123 235.928 38.4755 235.769 38.4755C235.389 38.4755 235.167 38.7816 232.98 42.4105C232.029 43.9846 231.078 45.2525 230.824 45.2525C230.539 45.2525 230.095 44.3781 229.81 43.285C229.525 42.1919 228.732 40.1807 228.098 38.8253C227.464 37.4261 226.513 35.1526 225.974 33.7972C225.435 32.398 224.896 30.9552 224.738 30.6054C224.579 30.2556 224.262 29.2937 224.041 28.463C223.819 27.676 222.931 25.4024 222.075 23.4349C221.219 21.5111 219.729 17.7947 218.81 15.215C217.098 10.5804 216.655 9.70598 216.338 10.4055Z" fill="#DF6951"/>
<path d="M236.752 21.0304C236.054 22.7356 236.53 23.1729 239.129 23.1729H241.507V21.6426V20.1123H239.288C237.386 20.1123 237.037 20.2434 236.752 21.0304Z" fill="#DF6951"/>
<path d="M263.696 21.6426V23.1729H266.074C268.007 23.1729 268.515 23.0417 268.673 22.4733C269.085 20.943 268.324 20.3309 265.947 20.1997L263.696 20.0685V21.6426Z" fill="#DF6951"/>
<path d="M53.8156 25.3154C52.4208 25.9275 51.5966 26.7145 50.5506 28.3322C50.0117 29.2067 49.346 30.2123 49.0607 30.5621C47.6342 32.4422 47.4757 38.4759 48.712 41.7551C50.3287 46.0399 52.9597 48.2698 56.3832 48.3135C57.8731 48.3135 58.8241 48.0511 59.9018 47.3079C60.6943 46.7832 61.5185 46.346 61.7087 46.346C61.9306 46.346 62.0891 46.0836 62.0891 45.7338C62.0891 45.4278 62.311 44.9031 62.5963 44.5533C63.4205 43.6352 64.5933 40.0499 64.7835 37.7763C65.0688 34.8032 64.5299 32.311 62.945 29.469C61.2649 26.4521 59.4898 25.1842 56.7002 25.053C55.559 25.0093 54.2594 25.0967 53.8156 25.3154ZM57.778 31.6551C59.3313 32.5296 60.1871 34.3222 60.1871 36.5521C60.1871 38.1261 59.9969 38.6945 58.9826 40.2248C57.9682 41.6676 57.5244 41.9737 56.5734 41.9737C54.9885 41.9737 53.7522 40.9243 52.8963 38.8257C52.0721 36.8144 52.2306 35.153 53.4669 33.1854C54.7666 31.043 55.9711 30.6058 57.778 31.6551Z" fill="#DF6951"/>
<path d="M70.9648 25.8403C67.6998 28.6385 67.0024 32.6173 68.936 37.864C69.7919 40.1813 69.7919 40.225 69.1896 41.1432C68.8092 41.7116 68.3338 41.9739 67.89 41.8428C67.1926 41.6679 67.1609 41.7553 67.1609 44.6847C67.1609 47.4393 67.2243 47.7016 67.9217 48.1388C69.6968 49.2756 72.9619 47.5704 74.1347 44.9471C75.2125 42.4986 75.2759 40.1813 74.3249 37.3393C73.0886 33.5792 73.2788 31.3056 74.9272 31.087C75.1174 31.0433 75.2442 29.7316 75.2442 28.0701V25.1407L73.6592 25.0095C72.4864 24.9221 71.789 25.1407 70.9648 25.8403Z" fill="#DF6951"/>
<path d="M81.2037 26.0582C80.3478 26.8015 79.6504 27.8509 79.175 29.2063C78.4776 31.0863 78.4142 31.9608 78.3191 39.3062C78.2557 44.7278 78.3191 47.4386 78.541 47.6135C78.7312 47.7884 79.7772 47.8758 80.855 47.8321L82.8521 47.7884L83.0106 39.8746C83.1374 33.3599 83.2642 31.8296 83.6762 31.2612C84.1517 30.6054 84.2151 30.6054 84.7223 31.2612C85.388 32.1794 85.3563 32.879 84.6272 34.0595C84.1517 34.8028 84.0249 35.5898 84.0883 37.4698C84.12 38.9564 84.3102 40.0058 84.5321 40.1369C85.3246 40.4867 88.019 39.2625 89.0651 38.082C90.0795 36.9015 90.1112 36.814 90.1112 33.0976C90.1429 29.5123 90.1112 29.2937 89.2236 28.0258C87.0047 24.834 83.6446 24.0033 81.2037 26.0582Z" fill="#DF6951"/>
<path d="M126.724 25.9274C125.963 26.4958 125.012 27.6325 124.6 28.4196C123.903 29.8624 123.903 30.1685 123.966 38.8693L124.061 47.8761L126.28 47.8324L128.499 47.745L128.594 45.2965C128.657 43.635 128.848 42.7169 129.165 42.542C129.799 42.1922 129.799 37.339 129.133 36.9892C128.816 36.8143 128.657 36.1147 128.657 34.6719C128.657 32.0485 129.038 31.0866 129.83 31.7425C130.337 32.1797 130.401 33.0979 130.496 39.9186L130.559 47.6138L131.605 47.8324C132.144 47.9636 133.19 48.0073 133.888 47.9636L135.156 47.8761L135.251 40.4433C135.378 32.136 135.029 29.1628 133.793 27.3265C132.081 24.7906 129.133 24.1785 126.724 25.9274Z" fill="#DF6951"/>
<path d="M33.6232 36.5959L33.7183 47.8763L35.2716 48.0075C38.283 48.2698 38.3147 48.2261 38.3147 43.5478C38.3147 39.8313 38.3781 39.4378 38.9487 39.2192C39.4876 39.0443 39.5827 38.6071 39.5827 36.3335C39.5827 33.9725 39.5193 33.6664 38.9487 33.6664C38.3781 33.6664 38.3147 33.3167 38.2513 29.6002L38.1562 25.5777L35.8422 25.4466L33.5598 25.3154L33.6232 36.5959Z" fill="#DF6951"/>
<path d="M40.28 36.5955L40.375 47.8323H42.7525L45.1299 47.876V36.7267V25.5774L42.6574 25.4462L40.2166 25.3151L40.28 36.5955Z" fill="#DF6951"/>
<path d="M95.1513 26.5398C93.0909 28.3761 92.8373 29.4692 92.8373 37.0332C92.8373 42.7171 92.9007 43.679 93.4713 44.9033C93.82 45.6903 94.2637 46.3461 94.4856 46.3461C94.6758 46.3461 95.0879 46.6085 95.3415 46.9582C95.7853 47.4829 99.7794 47.9639 101.65 47.7015C101.935 47.6578 102.03 46.8708 101.967 44.6847L101.872 41.7552L99.716 41.6241C98.1945 41.5366 97.4971 41.318 97.3703 40.8371C97.0533 39.7003 97.9092 38.957 99.7477 38.8258L101.555 38.6947V36.5085V34.3224L99.716 34.1912C96.451 33.9726 97.0533 31.4804 100.35 31.4804H102.062L101.967 28.5073L101.872 25.5779L99.1771 25.4467C96.7046 25.3592 96.3876 25.403 95.1513 26.5398Z" fill="#DF6951"/>
<path d="M105.676 25.9272C105.58 26.2333 105.549 31.3051 105.58 37.1639L105.676 47.876L106.563 47.8323C107.039 47.7885 108.053 47.7448 108.846 47.7011L110.272 47.6574V39.7436V31.8298L112.364 32.0046C114.266 32.1795 114.583 32.3107 115.376 33.5787C117.278 36.5081 116.136 40.6617 113.252 41.3176C111.128 41.7985 111.191 41.7111 111.286 44.9028L111.381 47.876L113.062 47.8323C114.868 47.7448 117.341 46.6517 118.324 45.515C119.275 44.3782 120.321 41.8422 120.86 39.3063C121.652 35.7211 121.145 33.0103 119.021 29.5999C116.802 25.9272 115.629 25.4025 110.018 25.3588C106.912 25.3588 105.771 25.49 105.676 25.9272Z" fill="#DF6951"/>
<path d="M138.706 25.6655C138.579 25.7967 138.484 29.2507 138.484 33.2732C138.484 37.2957 138.389 40.881 138.294 41.2745C138.199 41.668 137.819 41.974 137.502 41.974C136.963 41.974 136.899 42.3238 136.899 44.9909C136.899 47.3519 137.026 48.0515 137.407 48.2701C138.421 48.7948 139.372 48.4887 140.767 47.2208C143.017 45.1658 143.239 43.9853 143.239 33.8853V25.3594H141.084C139.879 25.3594 138.801 25.4906 138.706 25.6655Z" fill="#DF6951"/>
<path d="M149.579 25.8398C148.564 26.4082 147.423 27.8948 146.853 29.3814C146.219 31.0866 146.219 42.2796 146.884 44.422C147.518 46.5207 149.294 47.57 153.002 47.9198L155.919 48.1821V44.8592V41.5363H153.922C151.703 41.5363 151.005 41.0116 151.512 39.6999C151.766 39.0878 152.21 38.9129 153.731 38.9129H155.633L155.538 36.5956L155.443 34.322L153.605 34.1909C151.798 34.0597 151.766 34.016 151.861 32.8792C151.956 31.7424 152.051 31.6987 153.953 31.5675L155.919 31.4363V28.4195V25.3589L153.161 25.4026C151.608 25.4026 150.023 25.6212 149.579 25.8398Z" fill="#DF6951"/>
<path d="M242.521 33.0105C241.38 34.6282 241.158 35.1966 241.253 36.3772C241.412 38.6945 242.426 38.5196 244.36 35.8525L246.008 33.5789L245.12 32.3109C244.645 31.6114 244.169 31.043 244.074 31.0867C243.979 31.0867 243.282 31.9612 242.521 33.0105Z" fill="#DF6951"/>
<path d="M260.431 32.7044L259.575 33.9286L261.097 35.9836C261.921 37.1204 262.777 38.0386 262.967 38.0386C263.601 38.0386 264.077 36.7706 263.886 35.6338C263.696 34.5408 261.921 31.4802 261.509 31.4802C261.382 31.4802 260.907 32.0486 260.431 32.7044Z" fill="#DF6951"/>
<path d="M197.667 34.4096C197.603 34.6282 197.223 36.0274 196.843 37.6014C196.272 40.0061 195.194 43.1979 191.327 53.6913C191.073 54.3471 190.408 56.1398 189.837 57.7138C189.266 59.2878 188.537 60.9493 188.252 61.4302C187.967 61.9112 187.174 63.5726 186.509 65.1466C185.05 68.6007 183.18 72.4046 181.468 75.5964C180.739 76.8643 180.042 78.2634 179.852 78.6569C178.996 80.5807 176.428 84.7781 175.794 85.3902C175.382 85.7837 174.812 86.7019 174.526 87.5326C174.241 88.3197 173.48 89.7188 172.815 90.5932C172.149 91.4677 170.913 93.2603 170.025 94.5283C169.169 95.7962 167.616 97.8949 166.602 99.2503C165.555 100.562 163.59 103.185 162.195 105.022C160.801 106.902 159.469 108.432 159.247 108.432C158.835 108.432 156.585 111.405 156.458 112.149C156.426 112.411 157.979 112.761 160.198 113.023L164.002 113.504L165.872 111.055C170.374 105.328 179.693 91.5114 179.693 90.637C179.693 90.4621 180.771 88.4945 182.071 86.3521C183.37 84.166 184.67 81.7175 184.987 80.8868C185.272 80.0561 186.097 78.2634 186.826 76.9518C187.555 75.6401 188.886 72.6669 189.837 70.3934C190.756 68.1198 191.993 65.1466 192.563 63.835C193.863 60.9055 196.494 53.7788 196.494 53.2541C196.494 52.3796 198.206 47.6576 198.523 47.6576C198.713 47.7013 199.315 48.4883 199.822 49.4065C200.361 50.3247 200.868 51.1117 200.963 51.1554C201.185 51.1554 202.2 48.226 202.2 47.5701C202.2 47.3078 202.422 46.7394 202.707 46.3022C203.182 45.6026 203.151 45.2966 202.231 42.6732C201.724 41.1429 200.868 39.2191 200.361 38.3884C199.854 37.6014 199.188 36.2897 198.871 35.5027C198.269 34.1036 197.92 33.7975 197.667 34.4096Z" fill="#DF6951"/>
<path d="M251.714 40.0499C251.777 42.3235 251.936 43.0668 252.38 43.4603C253.331 44.2473 254.123 42.4984 254.06 39.7001L254.028 37.3828L252.823 37.2516L251.619 37.1205L251.714 40.0499Z" fill="#DF6951"/>
<path d="M4.20622 58.1072C3.50883 58.5444 2.46276 59.6812 1.92387 60.6868C1.00459 62.2171 0.909495 62.7418 0.909495 65.1903C0.941194 67.3764 1.09969 68.382 1.70198 69.7374C2.93825 72.5357 2.55786 74.5907 0.846096 74.2409C0.148713 74.1097 0.117013 74.2846 0.0219155 76.9517C-0.104881 80.2309 0.27551 80.8867 2.30426 80.8867C3.76243 80.8867 6.29837 79.3564 6.29837 78.482C6.29837 78.1322 6.48856 77.695 6.74216 77.5201C8.10522 76.3833 8.26372 72.492 7.05915 69.3877C6.52026 67.9448 6.29837 66.7643 6.36177 65.6712C6.45686 64.2721 6.58366 64.0098 7.40784 63.8349C8.32712 63.6163 8.35882 63.5288 8.45392 60.9929C8.51731 58.9379 8.42222 58.2821 8.01013 57.8449C7.21765 57.0579 5.72778 57.1453 4.20622 58.1072Z" fill="#DF6951"/>
<path d="M45.4469 57.976C44.1156 58.8942 42.8793 60.6431 42.277 62.3045C41.8966 63.4413 41.8015 65.4526 41.8015 72.0984V80.4932L44.1156 80.362L46.3979 80.2308L46.493 72.5356C46.5881 64.1846 46.7466 63.2664 48.1097 64.2721C48.712 64.7093 48.7753 65.1902 48.8387 72.4919L48.9338 80.2308L51.2479 80.362L53.5619 80.4932L53.4668 71.3988L53.3717 62.2608L51.977 60.2058C50.0433 57.3639 47.5074 56.4894 45.4469 57.976Z" fill="#DF6951"/>
<path d="M60.9479 57.7137C59.5848 58.1509 58.1583 59.6375 57.3342 61.3864C56.7319 62.7855 56.7002 63.3976 56.7636 71.5737L56.8587 80.2308H59.2361H61.6136L61.7087 77.8261C61.7721 76.2958 61.994 75.2902 62.2792 75.0716C62.9132 74.5469 62.9132 69.6937 62.2476 69.3439C61.9306 69.169 61.7721 68.4694 61.7721 67.1578C61.7721 64.7967 62.0257 63.8348 62.5962 63.8348C63.4521 63.8348 63.674 65.6275 63.674 73.0166V80.4932L65.9881 80.362L68.2704 80.2308L68.3655 72.5794C68.4923 62.2608 67.9534 59.8998 65.1005 58.1072C63.7691 57.2764 62.5962 57.1453 60.9479 57.7137Z" fill="#DF6951"/>
<path d="M77.273 57.976C75.4978 58.7193 73.0887 61.5613 72.1377 64.0098C71.155 66.5894 71.155 71.6175 72.2011 74.3283C73.7861 78.5257 76.5122 80.8867 79.8089 80.8867C81.489 80.8867 83.9298 79.8811 84.437 78.9629C84.6272 78.6569 85.1661 78.0447 85.6416 77.6075C86.1488 77.1703 86.7828 76.1209 87.0998 75.2465C87.7654 73.3227 88.5579 69.9998 88.3677 69.7812C88.3043 69.6937 87.1949 69.5188 85.9269 69.4751L83.6445 69.3002L83.0106 71.0928C81.8377 74.3283 79.2383 74.8967 77.4315 72.4045C75.7831 70.1309 76.0367 66.8517 78.0021 65.1028C79.5553 63.7912 81.2988 64.1847 82.5351 66.1522L83.486 67.6825L85.8001 67.4201C87.0681 67.3327 88.1458 67.0704 88.2409 66.9392C88.5579 66.1959 86.9413 62.5232 85.3563 60.4682C82.9789 57.3639 80.4746 56.5769 77.273 57.976Z" fill="#DF6951"/>
<path d="M96.6729 57.5828C95.7853 57.8452 93.0275 60.2062 91.9814 61.6053C90.6183 63.3979 90.1745 65.1906 90.1428 68.6447C90.1428 71.3555 90.3013 72.3611 91.0304 74.416C91.5376 75.8152 92.2667 77.1706 92.6471 77.4766C93.0592 77.7827 94.0101 78.6134 94.7709 79.3567C96.7046 81.1493 99.716 81.4117 101.745 80.0125C106.151 76.9082 106.912 75.2468 106.943 68.8633C106.943 65.278 106.848 64.2287 106.341 63.223C104.439 59.1568 100.033 56.5772 96.6729 57.5828ZM99.8745 63.8352C102.125 64.7096 103.013 68.6447 101.713 72.1425C100.952 74.2412 99.399 75.0282 97.497 74.2849C96.134 73.7602 95.3732 72.4485 95.1513 70.0438C94.8026 66.4148 95.9121 64.2724 98.5431 63.4417C98.6382 63.4417 99.2405 63.6165 99.8745 63.8352Z" fill="#DF6951"/>
<path d="M114.868 58.0198C111.35 59.7687 108.687 65.2777 109.099 70.0435C109.353 72.7106 110.684 76.8642 111.445 77.2577C111.762 77.4326 112.142 77.8261 112.269 78.1322C112.808 79.4001 115.597 80.8867 117.373 80.8867C121.208 80.8867 124.124 78.1322 125.456 73.279C126.47 69.4751 126.502 69.5188 123.586 69.5188C121.462 69.5188 121.05 69.65 121.05 70.2184C121.05 70.6119 120.574 71.5738 119.972 72.4045C119.084 73.6288 118.64 73.8911 117.563 73.8911C115.788 73.8911 114.076 71.705 114.076 69.4314C114.076 64.7093 118.197 62.5669 120.321 66.2396L121.208 67.7699L123.427 67.5076C124.632 67.3327 125.741 67.1141 125.868 66.9392C126.185 66.5457 125.044 63.179 123.934 61.2552C122.001 57.9323 118.006 56.4895 114.868 58.0198Z" fill="#DF6951"/>
<path d="M147.519 57.9323C146.821 58.282 146.219 58.5881 146.219 58.5881C146.187 58.5881 145.68 59.6375 145.109 60.8617L144.032 63.1353V71.7049V80.2308L146.346 80.362L148.628 80.4932V78.0447C148.628 75.8586 148.691 75.5962 149.42 75.2027C150.213 74.8092 150.245 74.6343 150.15 72.0547C150.054 69.6499 149.991 69.3002 149.42 69.3002C148.153 69.3002 148.533 64.1846 149.801 63.9223C150.974 63.6599 151.196 65.0591 151.132 72.9291L151.101 80.2308L153.541 80.362L155.982 80.4932L155.855 71.7486L155.76 63.0478L154.809 61.124C153.003 57.6262 150.403 56.4894 147.519 57.9323Z" fill="#DF6951"/>
<path d="M11.3702 68.8196C11.3702 81.4554 11.1166 80.4498 14.4134 80.4498H16.4421V69.0819V57.714H13.9062H11.3702V68.8196Z" fill="#DF6951"/>
<path d="M19.6121 69.0381V80.4497H21.831C23.0673 80.4497 24.05 80.3185 24.0817 80.0999C24.0817 79.925 24.0817 76.3398 24.1134 72.1424C24.1134 67.945 24.2719 64.2723 24.4303 63.9663C24.5888 63.6602 25.0326 63.6165 25.5715 63.7914C26.6493 64.1849 26.9346 65.8026 25.9836 66.2398C25.413 66.5022 25.3179 66.8957 25.3179 69.3441C25.3179 72.0112 25.3496 72.1424 26.0787 72.1424C26.4908 72.1424 26.998 72.4047 27.1882 72.7545C27.7588 73.7164 27.2516 74.7658 26.2372 74.7658H25.3179V77.6077C25.3179 80.3185 25.3496 80.4497 26.0787 80.4497C27.6954 80.4497 28.8682 79.8376 30.1045 78.3073C31.0872 77.0831 31.4359 76.3398 31.5627 74.9407C31.7529 72.7545 30.9604 70.0874 29.8509 69.3879C28.9633 68.8195 28.9316 68.5134 29.7875 66.9394C30.1679 66.2398 30.5166 64.797 30.6117 63.7476C30.7702 62.0425 30.6751 61.6927 29.5022 59.9001L28.2343 57.9325L23.9232 57.8014L19.6121 57.6265V69.0381Z" fill="#DF6951"/>
<path d="M33.9401 68.9505L34.0352 80.231H36.4126H38.7901L38.8852 68.9505L38.9486 57.7138H36.4126H33.8767L33.9401 68.9505Z" fill="#DF6951"/>
<path d="M129.133 58.2385C129.038 58.5445 129.006 63.6601 129.038 69.5189L129.133 80.231H131.352H133.571L133.666 76.2959C133.729 73.2353 133.856 72.2297 134.268 71.8362C134.934 71.1366 134.871 66.5458 134.173 65.8462C133.888 65.4964 133.729 64.1847 133.666 61.6488L133.571 57.9324L131.415 57.8012C129.894 57.7138 129.228 57.8449 129.133 58.2385Z" fill="#DF6951"/>
<path d="M135.695 68.9504L135.79 80.2308L138.104 80.362L140.386 80.4932L140.323 69.2127L140.228 57.9323L137.914 57.8011L135.631 57.6699L135.695 68.9504Z" fill="#DF6951"/>
<path d="M174.843 61.1239C174.526 61.5612 174.304 62.0858 174.304 62.2607C174.304 62.7854 171.166 68.207 169.803 70.0871C169.106 71.0053 168.472 72.0983 168.345 72.5355C168.091 73.5412 165.524 77.3888 165.143 77.3888C165.017 77.3888 163.844 78.9628 162.607 80.8866C161.339 82.7666 159.755 84.7779 159.089 85.3026C158.391 85.871 157.821 86.4394 157.821 86.658C157.821 87.0952 153.129 92.2545 152.432 92.6042C152.178 92.7354 151.671 93.1726 151.323 93.5661C150.086 95.0527 144.475 100.125 144.095 100.125C143.873 100.125 142.859 100.824 141.813 101.699C138.579 104.453 132.493 108.432 131.637 108.432C131.193 108.432 130.274 108.825 129.64 109.306C129.006 109.787 127.516 110.662 126.28 111.23C124.949 111.842 124.061 112.454 124.061 112.848C124.061 113.373 125.297 113.46 131.352 113.46H138.675L140.228 112.105C142.415 110.181 144.792 108.432 145.141 108.432C145.553 108.432 151.291 103.579 151.418 103.098C151.576 102.573 154.334 100.125 154.778 100.125C154.968 100.125 155.951 99.1626 156.902 98.0259C157.821 96.8891 159.406 95.0964 160.357 94.0908C162.734 91.5549 166.982 86.1333 169.676 82.242C173.607 76.558 174.114 75.7273 174.875 74.3719C175.731 72.7979 176.206 72.6667 176.999 73.8909C177.316 74.3719 177.728 74.7654 177.95 74.7654C178.362 74.7654 179.693 72.4044 179.693 71.6611C179.693 71.355 179.915 70.7866 180.169 70.3931C180.613 69.7373 180.549 69.4312 179.82 67.5074C178.647 64.4468 176.238 60.3369 175.636 60.3369C175.477 60.3369 175.129 60.6867 174.843 61.1239Z" fill="#DF6951"/>
<path d="M220.427 63.3979C220.046 63.5727 219.603 64.01 219.412 64.3597C219.032 64.9281 218.778 70.2186 219.032 71.9238C219.159 72.7545 219 72.7982 215.387 72.7108L211.646 72.5796L210.727 73.935C209.998 74.9844 209.808 75.7276 209.808 77.1705C209.808 78.4384 209.617 79.2255 209.174 79.7939C208.761 80.3185 208.54 81.1493 208.54 82.286C208.54 83.2042 208.349 84.5159 208.096 85.1717C207.176 87.7077 206.257 98.376 206.955 98.376C207.113 98.376 207.272 97.3266 207.303 96.0587C207.335 94.0037 207.367 93.9163 207.589 95.228C207.874 96.8457 209.364 100.125 209.808 100.125C209.998 100.125 210.125 100.606 210.125 101.262C210.125 102.092 209.871 102.486 209.015 103.011C207.684 103.754 207.525 104.453 207.652 109.307L207.747 113.023L208.952 113.154C209.649 113.242 210.378 113.023 210.663 112.717C211.139 112.192 211.139 112.411 210.917 114.772C210.79 116.215 210.632 118.357 210.632 119.581C210.6 120.849 210.22 122.861 209.712 124.391C207.652 130.731 206.955 140.306 208.223 144.197L208.825 146.034L220.649 145.946L232.472 145.815L232.568 144.022C232.631 142.842 232.504 141.967 232.187 141.574C231.934 141.18 231.807 140.525 231.87 140.044C232.029 139.3 231.838 139.126 230.824 138.907C230.158 138.732 229.239 138.601 228.795 138.601C227.337 138.601 227.115 136.021 228.352 133.442C228.795 132.523 229.334 130.468 229.588 128.938C229.81 127.364 230.317 125.134 230.697 123.954C231.046 122.817 231.363 121.112 231.363 120.15C231.363 117.833 229.651 113.067 227.21 108.651C225.213 104.978 225.055 104.322 225.847 103.71C227.052 102.792 226.038 94.8782 224.674 94.8782C224.136 94.8782 224.136 94.9656 224.357 87.97C224.357 87.2267 224.484 86.5709 224.643 86.5709C224.77 86.5709 225.657 87.4453 226.576 88.5384C227.527 89.5877 228.764 90.7245 229.271 90.9869C229.81 91.2929 230.475 91.7739 230.729 92.0362C231.3 92.6483 237.544 93.6977 238.527 93.3042C238.907 93.173 239.32 93.2604 239.415 93.5228C239.7 94.0912 240.778 94.1786 240.936 93.6102C241 93.3916 241.317 93.1293 241.665 93.0418C242.268 92.9107 242.299 93.2604 242.553 101.874C242.68 106.814 242.87 118.445 242.965 127.758C243.092 139.038 243.282 144.722 243.504 144.722C243.726 144.722 243.757 136.59 243.599 118.751C243.377 92.8232 243.377 92.7358 244.011 92.2548C244.835 91.6864 244.899 89.4128 244.17 87.97C243.884 87.4016 243.757 86.702 243.853 86.3523C243.979 85.8713 243.789 85.6964 243.25 85.6964C242.775 85.6964 242.426 86.0025 242.299 86.5709C242.204 87.0518 241.919 87.4453 241.697 87.4453C241.475 87.4453 241.126 87.9263 240.936 88.5384C240.524 89.7626 239.763 89.9375 238.464 89.0193C237.988 88.6258 237.196 88.4947 236.72 88.6258C236.055 88.8007 235.769 88.6696 235.611 88.1449C235.516 87.7514 235.104 87.4453 234.691 87.4453C234.311 87.4453 233.614 87.0518 233.138 86.5271C232.663 86.0462 231.902 85.4778 231.458 85.3029C230.983 85.128 230.38 84.4722 230.095 83.9038C228.256 79.7064 226.133 76.9519 224.77 76.9519C224.262 76.9519 224.104 75.1155 224.421 72.7982C225.055 68.4697 225.087 67.2017 224.674 65.4091C224.453 64.4472 224.104 63.4853 223.914 63.3104C223.502 62.8732 221.219 62.9169 220.427 63.3979ZM211.392 109.175C211.392 110.05 211.297 110.225 211.044 109.875C210.822 109.569 210.758 109.044 210.854 108.695C211.171 107.645 211.392 107.864 211.392 109.175ZM222.202 116.127C223.311 117.701 224.421 119.275 224.611 119.581C224.833 119.888 225.15 120.237 225.34 120.325C225.499 120.368 225.277 121.418 224.865 122.642C223.977 125.178 223.185 129.026 222.899 132.48C222.804 133.791 222.424 135.365 222.107 135.934C221.6 136.852 221.536 137.464 221.726 139.956C221.917 142.842 221.917 142.929 221.156 143.192C220.712 143.367 219.761 143.41 218.969 143.323L217.574 143.192L217.701 131.387C217.827 117.046 218.208 113.242 219.571 113.242C219.888 113.242 221.061 114.553 222.202 116.127ZM216.972 131.693C216.845 137.551 216.655 142.405 216.591 142.536C216.496 142.623 216.147 142.492 215.83 142.186C214.879 141.399 214.277 141.574 213.865 142.754C213.675 143.367 213.421 143.848 213.326 143.848C213.231 143.848 213.104 142.623 213.041 141.093C212.914 137.858 213.611 132.829 214.499 130.425C214.848 129.507 215.323 127.495 215.513 125.965C215.704 124.478 216.021 122.73 216.211 122.161C217.067 119.625 217.193 121.287 216.972 131.693Z" fill="#DF6951"/>
<path d="M159.881 121.942C159.025 122.38 157.821 122.992 157.218 123.298C156.616 123.604 155.031 124.828 153.7 125.965C151.005 128.238 148.977 128.982 145.49 128.982C142.478 128.938 140.893 128.326 137.85 125.921C134.617 123.342 130.908 121.811 128.023 121.899C125.297 121.986 121.303 123.648 118.545 125.921C113.473 130.075 109.574 130.862 105.041 128.588C103.647 127.889 101.523 126.664 100.287 125.921C95.1513 122.642 91.5692 121.549 89.699 122.598C89.0016 122.948 88.0189 123.385 87.5434 123.516C87.0363 123.604 84.8173 125.003 82.5984 126.577C77.2095 130.337 75.7513 130.906 71.9474 130.599C68.7458 130.381 69.2847 130.643 61.9304 125.921C58.7605 123.91 57.7461 123.648 53.6886 123.822L49.8847 123.954L47.0001 126.446C43.0694 129.9 41.104 130.993 38.3145 131.387C34.6374 131.867 34.1619 132.48 35.7469 134.709C37.2684 136.808 39.5191 136.283 43.6717 132.829C44.7495 131.911 45.7955 131.168 45.9857 131.168C46.1442 131.168 47.4439 130.381 48.9021 129.419C51.2478 127.845 51.755 127.67 53.8788 127.67C56.7318 127.714 58.4752 128.195 60.9795 129.812C64.403 131.999 68.8726 134.141 70.7111 134.447C73.0252 134.841 76.5121 134.054 79.4601 132.436C80.7598 131.736 81.9644 131.168 82.1546 131.168C82.3765 131.168 83.3274 130.512 84.2784 129.725C85.2294 128.938 87.068 127.714 88.3676 127.014C91.8545 125.178 93.5346 125.528 99.1454 129.157C101.523 130.731 104.344 132.305 105.358 132.698C108.211 133.704 111.318 133.573 114.076 132.261C115.344 131.649 116.58 131.168 116.802 131.168C117.055 131.168 118.197 130.293 119.401 129.2C124.822 124.391 128.562 123.954 133.951 127.451C138.231 130.293 139.594 131.037 141.971 131.867C147.17 133.66 152.59 132.217 156.68 127.932C159.057 125.396 160.42 124.828 163.844 124.828C166.76 124.872 166.95 124.916 170.183 126.971C172.022 128.151 173.734 129.332 173.987 129.638C174.748 130.512 177.474 131.649 179.44 131.911C181.468 132.174 182.229 131.693 182.229 130.075C182.229 128.588 181.31 127.758 179.661 127.758C178.584 127.801 177.506 127.32 175.414 125.965C173.86 124.916 171.673 123.735 170.532 123.298C169.391 122.861 167.869 122.205 167.172 121.811C165.428 120.893 161.846 120.937 159.881 121.942Z" fill="#DF6951"/>
<path d="M159.247 135.453C158.391 135.89 157.092 136.764 156.426 137.42C155.76 138.076 155 138.601 154.778 138.601C154.556 138.601 153.541 139.3 152.527 140.131C150.308 141.924 147.043 142.754 143.715 142.361C142.035 142.186 140.862 141.705 138.96 140.393C133.856 136.983 132.905 136.415 130.876 135.715C128.214 134.797 125.583 135.147 122.571 136.896C121.303 137.639 119.877 138.382 119.401 138.601C118.894 138.819 118.102 139.388 117.594 139.869C116.009 141.443 112.459 143.06 110.113 143.279C107.609 143.541 104.725 142.448 101.143 139.956C100.065 139.213 98.8919 138.601 98.5115 138.601C98.1311 138.601 96.7363 137.901 95.3732 137.07C93.8517 136.109 92.4252 135.54 91.601 135.54C90.1112 135.54 86.0854 137.595 81.172 140.831C74.8321 145.028 71.5037 145.29 65.988 142.055C64.308 141.049 62.406 139.869 61.8037 139.431C61.1698 138.951 60.3773 138.601 59.9969 138.601C59.6482 138.601 58.507 138.207 57.4926 137.726C56.4783 137.245 54.925 136.852 54.0691 136.852C51.8819 136.852 48.3633 138.47 46.1443 140.437C42.8793 143.366 38.8218 145.596 36.793 145.596C36.1273 145.596 35.3349 145.859 35.0179 146.165C34.5107 146.689 34.5107 146.777 35.1447 147.87C36.2858 149.925 37.5855 149.925 41.4211 147.782C43.2914 146.777 45.0348 145.684 45.2884 145.421C47.2538 143.192 51.7551 140.787 53.9423 140.787C55.9711 140.787 61.1381 143.06 62.406 144.547C62.9449 145.203 65.7027 146.558 67.89 147.258C70.9014 148.307 77.4315 147.52 80.3161 145.815C81.0135 145.421 82.7886 144.11 84.2785 142.973C89.5723 138.819 92.6788 138.47 97.3069 141.618C98.7651 142.579 100.952 144.153 102.157 145.028L104.344 146.689H108.814C113.03 146.689 113.41 146.602 115.502 145.421C116.707 144.722 117.975 143.804 118.324 143.366C118.64 142.929 120.099 141.749 121.525 140.787C125.868 137.814 129.101 137.857 133.856 141.005C140.988 145.64 141.591 145.99 144.095 146.471C148.311 147.345 151.861 145.771 156.87 140.831L158.93 138.819L162.956 138.688L166.982 138.513L170.088 140.525C171.8 141.661 173.417 142.754 173.67 142.973C175.731 144.809 177.506 145.728 179.218 145.902C181.468 146.121 182.007 145.728 182.007 143.891C182.007 141.88 181.437 141.224 179.566 141.224C178.425 141.224 177.348 140.831 175.953 139.912C174.843 139.169 173.766 138.601 173.575 138.601C173.195 138.601 170.247 137.027 167.965 135.628C166.221 134.535 161.213 134.447 159.247 135.453Z" fill="#DF6951"/>
</svg>
