<svg width="235" height="37" viewBox="0 0 235 37" fill="none" xmlns="http://www.w3.org/2000/svg">
<path fill-rule="evenodd" clip-rule="evenodd" d="M177.549 9.50306C144.77 5.85085 135.386 4.97055 117.132 3.83652C98.2154 2.66129 84.6521 2.15956 63.0961 1.83764C58.0989 1.763 52.7533 1.61661 46.491 1.38274C23.4872 0.523603 18.9999 0.500434 11.49 1.20131C7.76898 1.54874 4.56144 1.70994 2.77575 1.63972C1.18815 1.5771 0.895805 1.62629 0.87077 1.96008C0.848646 2.25505 3.35222 2.82954 4.74371 2.84867C5.24236 2.85571 6.59227 2.88893 7.74362 2.92289C8.89498 2.95666 11.4327 2.97813 13.3829 2.97055C17.9754 2.95245 20.1731 3.04065 28.0247 3.5581C41.2241 4.42801 51.2072 4.9256 63.4856 5.32563C68.0105 5.47297 74.0185 5.6687 76.8367 5.76048C98.2106 6.45633 124.27 7.95377 140.154 9.39908C159.43 11.1527 219.161 18.0507 218.118 18.4023C217.704 18.5418 210.768 19.0957 206.618 19.3208C202.806 19.5277 196.449 19.7184 188.636 19.8604C184.931 19.9279 179.845 20.0265 177.334 20.0797C167.902 20.2797 164.797 20.3193 159.448 20.3083C134.804 20.2573 118.478 20.8579 95.6814 22.6535C82.1316 23.7207 70.958 25.4948 58.4064 28.572C51.2702 30.3215 50.5592 30.702 51.1158 32.4735C51.478 33.6262 54.9689 34.207 62.0908 34.2993C75.106 34.4683 87.3188 34.8647 99.1308 35.5016C106.54 35.9011 107.523 35.9355 115.077 36.0612C117.898 36.1083 122.769 36.2705 125.901 36.4221L131.596 36.6976L124.083 35.5839C112.699 33.8962 100.465 32.3796 96.4157 32.154C83.0088 31.4071 75.7009 31.2095 63.7354 31.2699C60.8833 31.2843 58.4804 31.2554 58.3952 31.2058C57.5747 30.7257 76.992 27.4581 86.2082 26.5253C107.013 24.4192 128.338 23.5747 161.013 23.5624C163.997 23.5613 169.992 23.4921 174.335 23.4087C178.679 23.3252 185.525 23.1948 189.549 23.1185C205.039 22.8254 209.667 22.5732 224.635 21.2061C234.222 20.3304 234.274 20.3191 234.632 18.9983C235.027 17.5462 234.321 16.7766 232.171 16.3124C230.128 15.8713 191.622 11.0711 177.549 9.50306ZM132.218 36.624C132.393 36.6916 132.651 36.7222 132.792 36.692C132.932 36.6618 132.789 36.6065 132.474 36.569C132.158 36.5316 132.043 36.5564 132.218 36.624Z" fill="white"/>
</svg>
