<svg width="65" height="16" viewBox="0 0 65 16" fill="none" xmlns="http://www.w3.org/2000/svg">
<path d="M3 14.4423L6.92881 4.32168C7.61894 2.54392 10.1344 2.54391 10.8245 4.32168L12.8055 9.4246C13.4956 11.2024 16.0111 11.2024 16.7012 9.42461L18.6822 4.32168C19.3723 2.54392 21.8878 2.54391 22.5779 4.32168L24.5588 9.4246C25.249 11.2024 27.7644 11.2024 28.4546 9.42461L30.4355 4.32168C31.1256 2.54392 33.6411 2.54391 34.3312 4.32168L36.3122 9.4246C37.0023 11.2024 39.5178 11.2024 40.2079 9.42461L42.1889 4.32168C42.879 2.54392 45.3945 2.54391 46.0846 4.32168L48.0655 9.4246C48.7557 11.2024 51.2711 11.2024 51.9613 9.42461L53.9422 4.32168C54.6323 2.54392 57.1478 2.54391 57.8379 4.32168L61.7668 14.4423" stroke="#DF6951" stroke-width="5.22371"/>
</svg>
